<?xml version="1.0" encoding="utf-8"?>
<!-- Generator: Adobe Illustrator 15.0.0, SVG Export Plug-In . SVG Version: 6.00 Build 0)  -->
<!DOCTYPE svg PUBLIC "-//W3C//DTD SVG 1.1//EN" "http://www.w3.org/Graphics/SVG/1.1/DTD/svg11.dtd">
<svg version="1.1" id="Слой_1" xmlns="http://www.w3.org/2000/svg" xmlns:xlink="http://www.w3.org/1999/xlink" x="0px" y="0px"
	 width="300px" height="55.25px" viewBox="0 0 300 55.25" enable-background="new 0 0 300 55.25" xml:space="preserve">
<g>
	<polyline fill="#255F34" points="232.232,0 232.232,55.303 0,55.303 0,0 	"/>
	<polyline fill="#FFCA05" points="6.279,0 6.279,55.303 0.043,55.303 0.043,0 	"/>
	<polygon fill="#FFCA05" points="28.361,27.938 32.479,23.89 32.479,21.143 28.361,25.168 	"/>
	<polygon fill="#FFCA05" points="28.361,17.688 32.479,13.642 32.479,11.048 28.361,15.077 	"/>
	<polygon fill="#FFCA05" points="28.361,21.081 32.479,17.032 32.479,14.44 28.361,18.467 	"/>
	<polyline fill="#FFCA05" points="27.182,4.135 27.182,11.078 26.631,10.545 26.631,4.135 	"/>
	<polyline fill="#FFCA05" points="23.685,4.135 23.685,10.248 27.801,14.297 27.801,4.135 	"/>
	<polyline fill="#FFCA05" points="24.85,4.135 24.85,8.796 24.303,8.262 24.303,4.135 	"/>
	<polyline fill="#FFCA05" points="26.01,4.135 26.01,9.937 25.467,9.404 25.467,4.135 	"/>
	<polygon fill="#FFCA05" points="28.361,24.469 32.479,20.422 32.479,17.83 28.361,21.857 	"/>
	<polygon fill="#FFCA05" points="23.682,23.89 27.799,27.939 27.799,25.171 23.682,21.142 	"/>
	<polyline fill="#FFCA05" points="31.864,4.133 31.864,8.263 31.313,8.795 31.313,4.133 	"/>
	<polyline fill="#FFCA05" points="28.361,4.133 28.361,14.296 32.48,10.248 32.48,4.133 	"/>
	<polyline fill="#FFCA05" points="29.531,4.133 29.531,10.541 28.982,11.078 28.982,4.133 	"/>
	<polyline fill="#FFCA05" points="30.693,4.133 30.693,9.404 30.146,9.937 30.146,4.133 	"/>
	<polygon fill="#FFCA05" points="23.682,13.64 27.799,17.686 27.799,15.075 23.682,11.046 	"/>
	<polygon fill="#FFCA05" points="23.682,17.03 27.799,21.079 27.799,18.465 23.682,14.441 	"/>
	<polygon fill="#FFCA05" points="23.682,20.422 27.799,24.47 27.799,21.857 23.682,17.833 	"/>
	<path fill="#FFCA05" d="M48.229,22.56h-9.588h-0.437c0.209-0.329,0.339-0.72,0.339-1.141c0-1.19-0.972-2.161-2.166-2.161
		c-1.192,0-2.158,0.971-2.158,2.161c0,0.47,0.149,0.896,0.405,1.252c-0.186,0.125-0.314,0.338-0.314,0.578
		c0,0.243,0.129,0.452,0.314,0.577c-0.256,0.353-0.405,0.781-0.405,1.25c0,1.193,0.965,2.159,2.158,2.159
		c1.194,0,2.166-0.966,2.166-2.159c0-0.418-0.129-0.81-0.339-1.141h1.815h5.641v0.456h-0.736v0.635h0.736v0.659h-0.736v1.214h0.736
		v-0.549h1.091v0.549h0.731v-1.214h-0.731v-0.659h0.731V24.39h-0.731v-0.456h1.477c0.283,0,0.521-0.236,0.521-0.525v-0.324
		C48.75,22.8,48.512,22.56,48.229,22.56 M37.493,25.075c0,0.615-0.499,1.114-1.115,1.114c-0.612,0-1.112-0.499-1.112-1.114
		c0-0.224,0.068-0.436,0.18-0.609l0.316-0.524c-0.193-0.17-0.321-0.418-0.321-0.693s0.128-0.526,0.321-0.695l-0.316-0.523
		c-0.112-0.174-0.18-0.387-0.18-0.611c0-0.613,0.5-1.113,1.112-1.113c0.616,0,1.115,0.5,1.115,1.113
		c0,0.457-0.523,1.536-0.523,1.536v0.585C36.969,23.541,37.493,24.621,37.493,25.075"/>
	<path fill="#FFFFFF" d="M19.934,21.246v2.691c0,2.572,1.118,4.222,1.768,4.87c0.371,0.369,4.204,4.139,4.261,4.194
		c1.19,1.161,1.397,1.55,1.665,2.209v-2.982c0-2.652-1.347-3.686-2.038-4.356c-1.614-1.58-2.698-2.614-3.565-3.482
		C20.373,22.738,19.934,21.246,19.934,21.246"/>
	<path fill="#FFFFFF" d="M25.591,34.53c-1.617-1.58-2.698-2.617-3.567-3.483c-1.649-1.652-2.091-2.775-2.091-2.775v2.322
		c0,2.576,1.168,4.217,1.758,4.891c0.381,0.366,4.226,4.122,4.272,4.173c1.189,1.165,1.399,1.718,1.668,2.38v-3.149
		C27.632,36.232,26.279,35.203,25.591,34.53"/>
	<path fill="#FFFFFF" d="M34.084,9.115c-0.301,0-0.587,0.006-0.881,0.021v1.26c0.294-0.018,0.58-0.021,0.881-0.021
		c9.523,0,17.248,7.72,17.248,17.247c0,9.523-7.725,17.246-17.248,17.246c-9.524,0-17.247-7.723-17.247-17.246
		c0-5.289,2.375-10.017,6.125-13.181v-1.61c-4.483,3.377-7.383,8.748-7.383,14.791c0,10.214,8.289,18.501,18.505,18.501
		c10.22,0,18.507-8.287,18.507-18.501C52.591,17.399,44.304,9.115,34.084,9.115"/>
	<path fill="#FFFFFF" d="M47.177,37.28c0.288-0.391,0.558-0.794,0.81-1.209v-2.479h-0.81V37.28z"/>
	<path fill="#FFFFFF" d="M49.551,32.685c0.111-0.355,0.217-0.716,0.306-1.085h-2.68v0.663h0.402
		C48.3,32.244,49.097,32.234,49.551,32.685"/>
	<rect x="30.942" y="31.516" fill="#FFFFFF" width="0.729" height="7.378"/>
	<path fill="#FFFFFF" d="M29.263,30.087h2.409c0.621,0,1.054,0.13,1.305,0.374c0.256,0.237,0.372,0.673,0.372,1.293v6.893
		c0,0.629-0.116,1.059-0.372,1.3c-0.378,0.38-1.083,0.38-1.667,0.38l-0.366-0.013v3.271c0.237,0.045,0.475,0.088,0.727,0.125v-2.682
		c1.104,0,1.833-0.379,2.17-1.137v3.995l0.244,0.001l0.459-0.004V31.882c0-0.638,0.126-1.08,0.369-1.337
		c0.237-0.251,0.675-0.378,1.288-0.378c0.621,0,1.531-0.09,2.002,0.378c0.245,0.257,0.361,0.699,0.361,1.337v3.535h-1.651v-3.776
		h-0.711V43.75c0.235-0.028,0.474-0.067,0.711-0.108v-7.51h1.651v7.135c0.336-0.1,0.673-0.206,1.002-0.327v-6.529
		c0-0.737,0.176-1.296,0.932-1.548l-0.833-4.545h1.668l0.28,4.962h0.211l0.273-4.962h1.754l-0.938,4.545
		c0.783,0.271,0.938,0.762,0.938,1.548v4.218c0.485-0.37,0.959-0.759,1.404-1.182v-9.165h4.881c0.035-0.221,0.064-0.441,0.092-0.664
		H38.8l0.165,0.819c-0.364-0.661-1.047-0.997-2.052-0.997h-0.711c-1.213,0-1.954,0.484-2.23,1.44
		c-0.262-1.003-1.027-1.506-2.299-1.506H28.54V42.92c0.239,0.084,0.484,0.165,0.723,0.242V30.087z M44.437,35.304l-0.788-0.751
		l0.788-4.078V35.304z"/>
	<path fill="#FFFFFF" d="M41.333,42.186c0.255-0.127,0.506-0.261,0.75-0.4v-5.581h-0.75V42.186z"/>
	<polyline fill="#248241" points="247.502,0 247.502,55.303 256.763,55.303 256.763,0 	"/>
	<polyline fill="#248241" points="232.063,0 232.063,55.303 238.245,55.303 238.245,0 	"/>
	<polyline fill="#6AA643" points="266.035,0 266.035,55.303 272.209,55.303 272.209,0 	"/>
	<polyline fill="#A3CC39" points="284.559,0 284.559,55.303 290.735,55.303 290.735,0 	"/>
	<polyline fill="#A3CC39" points="256.763,0 256.763,55.303 259.853,55.303 259.853,0 	"/>
	<polyline fill="#255F34" points="241.33,0 241.33,55.303 244.416,55.303 244.416,0 	"/>
	<polyline fill="#FFCA05" points="278.384,0 278.384,55.303 281.475,55.303 281.475,0 	"/>
	<polyline fill="#FFCA05" points="296.915,0 296.915,55.303 300,55.303 300,0 	"/>
	<path fill="#FFFFFF" d="M129.279,27.374h6.945v2.272h-6.945V27.374z M115.635,34.626h3.617c1.151,0,1.966-0.053,2.434-0.167
		c0.471-0.113,0.881-0.373,1.228-0.773c0.346-0.401,0.53-0.892,0.53-1.48c0-0.857-0.31-1.474-0.913-1.862
		c-0.61-0.395-1.647-0.589-3.111-0.589h-3.785V34.626z M111.917,19.302h13.768v3.093h-10.049v4.268h4.973
		c1.379,0,2.512,0.167,3.413,0.505c0.906,0.333,1.676,0.953,2.317,1.859c0.647,0.903,0.97,1.963,0.97,3.178
		c0,1.244-0.323,2.313-0.97,3.202c-0.645,0.884-1.383,1.497-2.201,1.824c-0.825,0.322-2.001,0.484-3.529,0.484h-8.692V19.302z
		 M92.811,37.716l6.293-9.609l-5.701-8.805h4.348l3.687,5.918l3.62-5.918h4.307l-5.725,8.942l6.296,9.472h-4.486l-4.083-6.368
		l-4.091,6.368H92.811z M88.866,30.949l3.611,1.141c-0.553,2.009-1.475,3.501-2.757,4.481c-1.286,0.971-2.925,1.46-4.896,1.46
		c-2.441,0-4.455-0.833-6.036-2.507c-1.567-1.671-2.358-3.948-2.358-6.849c0-3.064,0.796-5.445,2.377-7.143
		c1.58-1.696,3.662-2.544,6.246-2.544c2.248,0,4.079,0.667,5.486,2c0.84,0.785,1.467,1.915,1.885,3.389l-3.678,0.88
		c-0.214-0.96-0.674-1.711-1.369-2.261c-0.689-0.554-1.526-0.827-2.52-0.827c-1.356,0-2.47,0.483-3.314,1.467
		c-0.851,0.98-1.281,2.571-1.281,4.755c0,2.332,0.417,3.991,1.261,4.975c0.839,0.993,1.923,1.489,3.258,1.489
		c0.996,0,1.843-0.312,2.558-0.942C88.048,33.285,88.559,32.295,88.866,30.949 M64.283,22.418v5.219h2.033
		c1.467,0,2.451-0.089,2.935-0.283c0.5-0.195,0.887-0.497,1.17-0.909c0.276-0.405,0.416-0.885,0.416-1.428
		c0-0.667-0.192-1.22-0.586-1.661c-0.394-0.431-0.895-0.705-1.49-0.813c-0.447-0.084-1.342-0.125-2.681-0.125H64.283z
		 M60.566,37.716V19.302h5.968c2.255,0,3.731,0.096,4.422,0.276c1.049,0.28,1.938,0.874,2.646,1.805
		c0.717,0.924,1.07,2.127,1.07,3.584c0,1.13-0.203,2.081-0.616,2.854c-0.411,0.77-0.93,1.369-1.564,1.814
		c-0.632,0.438-1.271,0.728-1.921,0.87c-0.893,0.174-2.179,0.27-3.864,0.27h-2.424v6.941H60.566z"/>
	<path fill="#FFFFFF" d="M140.673,21.944c0-2.04,1.542-3.433,3.53-3.433c1.464,0,2.309,0.797,2.776,1.623l-1.212,0.595
		c-0.28-0.536-0.877-0.964-1.564-0.964c-1.203,0-2.078,0.926-2.078,2.179s0.875,2.179,2.078,2.179c0.687,0,1.284-0.417,1.564-0.964
		l1.212,0.586c-0.479,0.827-1.312,1.632-2.776,1.632C142.215,25.377,140.673,23.984,140.673,21.944"/>
	<polygon fill="#FFFFFF" points="149.35,25.256 149.35,19.866 147.411,19.866 147.411,18.621 152.701,18.621 152.701,19.866 
		150.77,19.866 150.77,25.256 	"/>
	<path fill="#FFFFFF" d="M153.597,25.257v-6.635h3.104c1.442,0,2.229,0.975,2.229,2.139c0,1.153-0.794,2.137-2.229,2.137h-1.69
		v2.359H153.597z M157.489,20.761c0-0.559-0.421-0.896-0.976-0.896h-1.503v1.791h1.503
		C157.068,21.656,157.489,21.308,157.489,20.761"/>
	<path fill="#FFFFFF" d="M164.373,25.257l-0.408-1.125h-2.842l-0.419,1.125h-1.61l2.565-6.636h1.77l2.559,6.636H164.373z
		 M162.545,20.034l-1.034,2.855h2.069L162.545,20.034z"/>
	<polygon fill="#FFFFFF" points="170.923,25.256 169.262,22.829 167.592,25.256 165.909,25.256 168.318,21.854 166.061,18.621 
		167.74,18.621 169.262,20.89 170.765,18.621 172.465,18.621 170.208,21.844 172.612,25.256 	"/>
	<path fill="#FFFFFF" d="M172.916,21.944c0-2,1.459-3.433,3.462-3.433c2.008,0,3.47,1.433,3.47,3.433s-1.462,3.433-3.47,3.433
		C174.375,25.377,172.916,23.944,172.916,21.944 M178.397,21.944c0-1.243-0.799-2.179-2.02-2.179c-1.225,0-2.011,0.937-2.011,2.179
		c0,1.235,0.786,2.179,2.011,2.179C177.599,24.123,178.397,23.179,178.397,21.944"/>
	<path fill="#FFFFFF" d="M180.834,25.256v-6.634h3.491c1.265,0,1.911,0.804,1.911,1.69c0,0.836-0.52,1.393-1.146,1.521
		c0.706,0.11,1.274,0.796,1.274,1.632c0,0.996-0.668,1.791-1.932,1.791H180.834z M184.793,20.561c0-0.417-0.3-0.727-0.776-0.727
		h-1.771v1.444h1.771C184.493,21.278,184.793,20.977,184.793,20.561 M184.921,23.266c0-0.417-0.298-0.775-0.854-0.775h-1.822v1.542
		h1.822C184.604,24.032,184.921,23.744,184.921,23.266"/>
	<path fill="#FFFFFF" d="M191.996,25.257l-0.407-1.125h-2.843l-0.42,1.125h-1.609l2.565-6.636h1.77l2.558,6.636H191.996z
		 M190.167,20.034l-1.034,2.855h2.069L190.167,20.034z"/>
	<polygon fill="#FFFFFF" points="198.763,25.256 198.763,22.471 195.628,22.471 195.628,25.256 194.216,25.256 194.216,18.621 
		195.628,18.621 195.628,21.228 198.763,21.228 198.763,18.621 200.183,18.621 200.183,25.256 	"/>
	<polygon fill="#FFFFFF" points="201.48,25.256 201.48,18.621 202.894,18.621 202.894,22.909 205.965,18.621 207.42,18.621 
		207.42,25.256 206.005,25.256 206.005,20.81 202.843,25.256 	"/>
	<polygon fill="#FFFFFF" points="208.724,25.256 208.724,18.621 213.419,18.621 213.419,19.866 210.137,19.866 210.137,21.269 
		213.347,21.269 213.347,22.51 210.137,22.51 210.137,24.013 213.419,24.013 213.419,25.256 	"/>
	<polygon fill="#FFFFFF" points="140.335,37.12 143.14,33.598 140.503,30.486 142.245,30.486 144.354,33.151 144.354,30.486 
		145.776,30.486 145.776,33.151 147.872,30.486 149.625,30.486 146.987,33.598 149.794,37.12 148.063,37.12 146.054,34.463 
		145.776,34.802 145.776,37.12 144.354,37.12 144.354,34.802 144.073,34.463 142.066,37.12 	"/>
	<polygon fill="#FFFFFF" points="159.572,37.12 159.572,30.486 160.983,30.486 160.983,34.773 164.056,30.486 165.511,30.486 
		165.511,37.12 164.097,37.12 164.097,32.673 160.936,37.12 	"/>
	<path fill="#FFFFFF" d="M175.49,36.175l0.733-0.945c0.457,0.477,1.294,0.755,1.942,0.755c0.872,0,1.38-0.348,1.38-0.846
		c0-0.526-0.468-0.766-1.462-0.766h-1.346v-1.242h1.346c0.785,0,1.354-0.218,1.354-0.708c0-0.526-0.597-0.783-1.354-0.783
		c-0.646,0-1.334,0.238-1.801,0.686l-0.706-0.887c0.536-0.604,1.482-1.054,2.645-1.054c1.553,0,2.629,0.697,2.629,1.801
		c0,0.835-0.718,1.382-1.443,1.513c0.668,0.069,1.541,0.598,1.541,1.592c0,1.143-1.145,1.948-2.727,1.948
		C176.996,37.239,175.974,36.772,175.49,36.175"/>
	<polygon fill="#FFFFFF" points="195.682,37.12 195.682,34.336 192.549,34.336 192.549,37.12 191.136,37.12 191.136,30.486 
		192.549,30.486 192.549,33.091 195.682,33.091 195.682,30.486 197.103,30.486 197.103,37.12 	"/>
	<polygon fill="#FFFFFF" points="207.531,37.12 207.531,30.486 208.943,30.486 208.943,34.773 212.016,30.486 213.472,30.486 
		213.472,37.12 212.057,37.12 212.057,32.673 208.895,37.12 	"/>
</g>
</svg>
